<?xml version="1.0" encoding="iso-8859-1"?>
<!-- Generator: Adobe Illustrator 19.0.0, SVG Export Plug-In . SVG Version: 6.00 Build 0)  -->
<svg version="1.1" id="Layer_1" xmlns="http://www.w3.org/2000/svg" xmlns:xlink="http://www.w3.org/1999/xlink" x="0px" y="0px"
	 viewBox="0 0 512 512" style="enable-background:new 0 0 512 512;" xml:space="preserve">
<g>
	<g>
		<path d="M464.143,191.814c-27.46-88.867-110.382-153.619-208.148-153.619c-97.767,0-180.69,64.752-208.148,153.62
			C19.8,200.162,0,226.278,0,255.999c0,29.719,19.8,55.835,47.846,64.182c27.458,88.871,110.382,153.624,208.149,153.624
			s180.69-64.753,208.149-153.622C492.196,311.844,512,285.729,512,255.999C512,226.267,492.195,200.152,464.143,191.814z
			 M42.049,296.854c-13.885-8.51-22.945-23.858-22.945-40.856c0-16.999,9.059-32.347,22.946-40.856
			c-2.523,13.24-3.86,26.894-3.86,40.857C38.19,269.962,39.526,283.616,42.049,296.854z M255.995,454.7
			c-109.563,0-198.7-89.137-198.7-198.7c0-75.771,42.638-141.762,105.173-175.268c9.5,20.215,39.383,70.795,110.219,99.13
			c1.163,0.466,2.363,0.686,3.544,0.686c3.79,0,7.378-2.272,8.872-6.008c1.959-4.898-0.424-10.457-5.323-12.417
			c-64.362-25.745-91.763-72.396-100.002-89.616c21.698-9.047,45.329-14.35,70.086-15.104c6.62,13.427,25.628,44.949,64.903,62.802
			c1.283,0.583,2.625,0.858,3.947,0.858c3.631,0,7.102-2.081,8.703-5.602c2.183-4.803,0.059-10.465-4.744-12.648
			c-26.462-12.028-42.342-31.698-50.571-44.856c102.058,8.228,182.59,93.904,182.59,198.044
			C454.695,365.563,365.56,454.7,255.995,454.7z M469.938,296.862c2.524-13.241,3.86-26.898,3.86-40.862
			c0-13.965-1.337-27.624-3.862-40.866c13.893,8.504,22.957,23.855,22.957,40.865C492.895,273.007,483.832,288.358,469.938,296.862z
			"/>
	</g>
</g>
<g>
	<g>
		<path d="M174.203,244.294c-22.839,0-41.419,18.58-41.419,41.419c0,5.275,4.276,9.552,9.552,9.552s9.552-4.277,9.552-9.552
			c0-12.305,10.01-22.314,22.314-22.314s22.315,10.01,22.315,22.314c0,5.275,4.276,9.552,9.552,9.552s9.552-4.277,9.552-9.552
			C215.623,262.874,197.042,244.294,174.203,244.294z"/>
	</g>
</g>
<g>
	<g>
		<path d="M337.787,244.294c-22.839,0-41.42,18.58-41.42,41.419c0,5.275,4.276,9.552,9.552,9.552c5.277,0,9.552-4.277,9.552-9.552
			c0-12.305,10.01-22.314,22.315-22.314c12.306,0,22.315,10.01,22.315,22.314c0,5.275,4.276,9.552,9.552,9.552
			c5.277,0,9.552-4.277,9.552-9.552C379.205,262.874,360.626,244.294,337.787,244.294z"/>
	</g>
</g>
<g>
	<g>
		<path d="M314.461,350.003c-3.732-3.73-9.779-3.73-13.511,0c-24.279,24.279-63.784,24.279-88.063,0
			c-3.732-3.73-9.779-3.73-13.509,0c-3.731,3.73-3.731,9.779,0,13.508c15.38,15.38,35.816,23.851,57.542,23.851
			s42.161-8.47,57.542-23.851C318.192,359.781,318.192,353.733,314.461,350.003z"/>
	</g>
</g>
<g>
	<g>
		<path d="M268.742,299.529h-25.493c-5.277,0-9.552,4.277-9.552,9.552s4.277,9.552,9.552,9.552h25.493
			c5.277,0,9.552-4.277,9.552-9.552S274.018,299.529,268.742,299.529z"/>
	</g>
</g>
<g>
</g>
<g>
</g>
<g>
</g>
<g>
</g>
<g>
</g>
<g>
</g>
<g>
</g>
<g>
</g>
<g>
</g>
<g>
</g>
<g>
</g>
<g>
</g>
<g>
</g>
<g>
</g>
<g>
</g>
</svg>
