<?xml version="1.0" encoding="iso-8859-1"?>
<!-- Generator: Adobe Illustrator 17.1.0, SVG Export Plug-In . SVG Version: 6.00 Build 0)  -->
<!DOCTYPE svg PUBLIC "-//W3C//DTD SVG 1.1//EN" "http://www.w3.org/Graphics/SVG/1.1/DTD/svg11.dtd">
<svg version="1.1" id="Capa_1" xmlns="http://www.w3.org/2000/svg" xmlns:xlink="http://www.w3.org/1999/xlink" x="0px" y="0px"
	 viewBox="0 0 187 187" style="enable-background:new 0 0 187 187;" xml:space="preserve">
<path d="M94.34,187c-58.703,0-87.908-28.848-89.123-30.076c-0.971-0.981-0.962-2.564,0.02-3.535c0.982-0.971,2.563-0.962,3.535,0.02
	c0.118,0.118,5.198,5.114,15.184,10.898v-23.1c-4.736-1.13-8.269-5.398-8.269-10.476v-17.963c0-5.248,3.773-9.631,8.75-10.579V22.22
	c-5.004-1.14-8.75-5.626-8.75-10.97C15.687,5.047,20.733,0,26.937,0s11.25,5.047,11.25,11.25c0,5.344-3.746,9.83-8.75,10.97V28
	h128.128v-5.78c-5.004-1.14-8.75-5.626-8.75-10.97c0-6.203,5.047-11.25,11.25-11.25s11.25,5.047,11.25,11.25
	c0,5.344-3.746,9.83-8.75,10.97v79.97c4.977,0.947,8.75,5.331,8.75,10.579v17.963c0,5.248-3.773,9.631-8.75,10.579v23.663
	c10.358-6.037,15.499-11.39,15.615-11.513c0.943-1.006,2.522-1.061,3.532-0.118c1.008,0.942,1.063,2.521,0.123,3.529
	C180.688,158.101,153.085,187,94.34,187z M28.955,167.04C43.241,174.402,65.074,182,94.34,182c28.382,0,49.354-7.146,63.225-14.288
	V141.5H29.437v2.438c0,0.552-0.179,1.062-0.481,1.475V167.04z M29.437,136.5h128.128V107H29.437V136.5z M162.564,107.364v28.771
	c2.188-0.82,3.75-2.933,3.75-5.404v-17.963C166.314,110.297,164.753,108.185,162.564,107.364z M24.437,107.364
	c-2.188,0.82-3.75,2.933-3.75,5.404v17.963c0,2.471,1.562,4.584,3.75,5.404V107.364z M144.75,102h12.814V33H144.75V102z M125.25,102
	h14.5V33h-14.5V102z M105.75,102h14.5V33h-14.5V102z M86.25,102h14.5V33h-14.5V102z M66.75,102h14.5V33h-14.5V102z M47.25,102h14.5
	V33h-14.5V102z M29.437,102H42.25V33H29.437V102z M160.064,5c-3.446,0-6.25,2.804-6.25,6.25s2.804,6.25,6.25,6.25
	s6.25-2.804,6.25-6.25S163.511,5,160.064,5z M26.937,5c-3.446,0-6.25,2.804-6.25,6.25s2.804,6.25,6.25,6.25s6.25-2.804,6.25-6.25
	S30.383,5,26.937,5z"/>
<g>
</g>
<g>
</g>
<g>
</g>
<g>
</g>
<g>
</g>
<g>
</g>
<g>
</g>
<g>
</g>
<g>
</g>
<g>
</g>
<g>
</g>
<g>
</g>
<g>
</g>
<g>
</g>
<g>
</g>
</svg>
