<?xml version="1.0" encoding="iso-8859-1"?>
<!-- Generator: Adobe Illustrator 17.1.0, SVG Export Plug-In . SVG Version: 6.00 Build 0)  -->
<!DOCTYPE svg PUBLIC "-//W3C//DTD SVG 1.1//EN" "http://www.w3.org/Graphics/SVG/1.1/DTD/svg11.dtd">
<svg version="1.1" id="Capa_1" xmlns="http://www.w3.org/2000/svg" xmlns:xlink="http://www.w3.org/1999/xlink" x="0px" y="0px"
	 viewBox="0 0 416.945 416.945" style="enable-background:new 0 0 416.945 416.945;" xml:space="preserve">
<path id="XMLID_1276_" d="M392.479,229.003L369.826,65.695c-1.339-9.648-6.329-17.809-14.052-22.979
	c-7.623-5.103-17.456-6.903-27.38-5.095c-6.527-9.131-16.478-15.655-27.959-17.684c-0.655-2.001-1.537-3.888-2.646-5.663
	c-9.614-15.4-31.856-14.496-41.356-14.117c-0.78,0.032-1.466,0.061-2.035,0.072h-95.913c-0.569-0.012-1.255-0.04-2.035-0.072
	c-9.5-0.379-31.742-1.283-41.357,14.117c-1.108,1.775-1.991,3.663-2.646,5.664c-11.267,1.991-21.06,8.313-27.591,17.175
	c-8.644-0.801-17.011,1.134-23.686,5.603c-7.722,5.17-12.712,13.331-14.05,22.979L24.465,229.002
	c-2.716,19.574,11.348,39.715,31.352,44.897l11.352,2.939v12.959c0,6.754,3.702,12.66,9.183,15.796v32.231
	c0,24.111,19.616,43.727,43.729,43.727h113.638v17.209c0,10.026,8.158,18.184,18.187,18.184h29.148
	c10.027,0,18.186-8.157,18.186-18.184v-17.681c21.07-3.118,37.292-21.328,37.292-43.255v-32.229
	c5.481-3.136,9.185-9.042,9.185-15.798v-12.083c0.577-0.034,1.159-0.124,1.74-0.274l13.678-3.541
	C381.136,268.717,395.198,248.577,392.479,229.003z M76.35,62.998v181.854c-4.831,2.764-8.28,7.682-9.03,13.434l-6.991-1.81
	c-11.252-2.915-19.511-14.363-18.034-24.999L64.95,68.167c0.632-4.558,2.787-8.187,6.233-10.493c1.703-1.14,3.685-1.932,5.844-2.362
	C76.583,57.807,76.35,60.376,76.35,62.998z M242.793,18.23l-18.726,35.865c-2.3,4.406-0.593,9.843,3.813,12.144
	c4.405,2.3,9.842,0.593,12.144-3.813l23.188-44.413c6.976,0.048,16.285,0.95,19.31,5.795c1.498,2.399,3.799,10.172-7.16,30.47
	l-43.763,81.063l-42.781-81.246L170.089,18.23H242.793z M130.361,23.807c3.024-4.845,12.332-5.747,19.308-5.795l23.207,44.441
	l44.765,85.012c-14.403,0.215-20.444,0.199-24.466-2.063c-4.516-2.541-9.422-9.644-18.326-22.538l-1.366-1.978l-35.964-66.609
	C126.561,33.98,128.863,26.207,130.361,23.807z M197.442,363.552h-77.363c-14.187,0-25.729-11.541-25.729-25.727v-29.844h103.092
	V363.552z M233.717,363.552h-18.274v-55.57h18.274V363.552z M233.717,289.982h-27.274H85.35c-0.08,0-0.183-0.103-0.183-0.184
	v-29.151c0-0.081,0.103-0.184,0.183-0.184h148.366V289.982z M281.237,398.761c0,0.069-0.104,0.184-0.186,0.184h-29.148
	c-0.082,0-0.187-0.103-0.187-0.184v-26.209V251.186c0-0.074,0.111-0.184,0.187-0.184h29.148c0.069,0,0.186,0.115,0.186,0.184
	V398.761z M297.005,242.463c-3.093-5.634-9.084-9.461-15.953-9.461h-29.148c-6.869,0-12.861,3.827-15.954,9.461H94.35V62.998
	c0-3.778,0.818-7.369,2.288-10.604c0.553-0.743,0.998-1.582,1.306-2.5c3.154-5.306,8.161-9.386,14.124-11.345
	c1.524,7.158,4.726,15.229,9.611,24.279l36.198,67.043c0.156,0.29,0.328,0.571,0.516,0.843l1.644,2.379
	c10.768,15.591,16.173,23.416,24.311,27.996c8.447,4.752,17.473,4.612,33.849,4.37c3.629-0.055,7.743-0.117,12.339-0.136
	c3.294-0.014,6.317-1.826,7.883-4.725L291.2,62.828c4.888-9.051,8.089-17.122,9.613-24.28c10.275,3.373,17.716,13.059,17.716,24.45
	v179.466H297.005z M318.529,337.826c0,11.967-8.21,22.051-19.292,24.913v-54.757h19.292V337.826z M327.714,289.798
	c0,0.081-0.102,0.184-0.181,0.184h-28.296v-29.519h28.296c0.079,0,0.181,0.103,0.181,0.184V289.798z M356.619,256.474l-10.954,2.836
	c-0.451-6.192-4.019-11.534-9.136-14.461V62.998c0-2.756-0.256-5.453-0.746-8.069c3.762-0.025,7.234,0.909,9.979,2.746
	c3.446,2.308,5.603,5.936,6.234,10.493l22.654,163.311C376.127,242.113,367.869,253.56,356.619,256.474z M215.442,187.255v36.822
	c0,4.971-4.029,9-9,9s-9-4.029-9-9v-36.822c0-4.971,4.029-9,9-9S215.442,182.285,215.442,187.255z"/>
<g>
</g>
<g>
</g>
<g>
</g>
<g>
</g>
<g>
</g>
<g>
</g>
<g>
</g>
<g>
</g>
<g>
</g>
<g>
</g>
<g>
</g>
<g>
</g>
<g>
</g>
<g>
</g>
<g>
</g>
</svg>
