<?xml version="1.0" encoding="iso-8859-1"?>
<!-- Generator: Adobe Illustrator 19.0.0, SVG Export Plug-In . SVG Version: 6.00 Build 0)  -->
<svg version="1.1" id="Layer_1" xmlns="http://www.w3.org/2000/svg" xmlns:xlink="http://www.w3.org/1999/xlink" x="0px" y="0px"
	 viewBox="0 0 512 512" style="enable-background:new 0 0 512 512;" xml:space="preserve">
<g>
	<g>
		<path d="M419.843,120.459c-10.55-9.673-24.598-15.589-40.007-15.589h-65.098c-42.625,0-71.464,43.985-54.245,83.065H90.631
			C40.658,187.936,0,228.593,0,278.567v110.841c0,9.788,7.935,17.723,17.723,17.723h72.908c9.788,0,17.723-7.935,17.723-17.723
			v-31.935h295.29v31.935c0,9.788,7.935,17.723,17.723,17.723h72.909c9.788,0,17.723-7.935,17.723-17.723v-230.36
			C512,111.07,453.929,86.907,419.843,120.459z M72.909,371.685H35.446v-93.118c0-24.233,15.699-44.869,37.463-52.267
			C72.909,230.052,72.909,367.811,72.909,371.685z M403.645,322.028h-295.29v-23.133h295.29V322.028z M403.645,263.449h-295.29
			v-40.067c4.444,0,286.493,0,295.29,0V263.449z M379.837,187.936h-65.098c-13.128,0-23.809-10.681-23.809-23.809
			c0-13.128,10.68-23.809,23.809-23.809h65.097c13.128,0,23.809,10.681,23.809,23.809
			C403.645,177.255,392.965,187.936,379.837,187.936z M476.554,371.685h-37.463v-31.935c0-8.446,0-172.218,0-180.703
			c0-10.328,8.403-18.731,18.732-18.731c10.328,0,18.731,8.403,18.731,18.731V371.685z"/>
	</g>
</g>
<g>
</g>
<g>
</g>
<g>
</g>
<g>
</g>
<g>
</g>
<g>
</g>
<g>
</g>
<g>
</g>
<g>
</g>
<g>
</g>
<g>
</g>
<g>
</g>
<g>
</g>
<g>
</g>
<g>
</g>
</svg>
