<?xml version="1.0" encoding="iso-8859-1"?>
<!-- Generator: Adobe Illustrator 19.0.0, SVG Export Plug-In . SVG Version: 6.00 Build 0)  -->
<svg version="1.1" id="Capa_1" xmlns="http://www.w3.org/2000/svg" xmlns:xlink="http://www.w3.org/1999/xlink" x="0px" y="0px"
	 viewBox="0 0 512.001 512.001" style="enable-background:new 0 0 512.001 512.001;" xml:space="preserve">
<g>
	<g>
		<path d="M507.96,23.4c-4.368-4.368-15.597-9.983-64.069-14.672c-31.061-3.004-72.677-5.151-120.349-6.205
			C226.824,0.38,125.453,2.982,65.285,9.144c-4.177,0.428-7.215,4.16-6.788,8.336c0.428,4.176,4.15,7.216,8.336,6.788
			c59.262-6.069,159.424-8.648,255.175-6.573c115.94,2.515,161.986,10.416,172.975,15.177V53.72
			c-37.361-11.084-149.646-15.08-238.3-15.08s-200.939,3.996-238.3,15.08V32.966c2.208-0.942,6.407-2.345,14.128-3.894
			c4.117-0.825,6.785-4.832,5.959-8.948c-0.825-4.117-4.832-6.79-8.948-5.959C13.021,17.474,7.966,20.838,5.406,23.4
			c-1.425,1.425-2.225,3.359-2.225,5.374v30.673c-0.001,3.733,1.853,7.197,4.958,9.265c3.103,2.068,7.013,2.443,10.457,1.003
			c22.719-9.494,118.398-15.873,238.088-15.873c119.689,0,215.369,6.379,238.089,15.874c1.385,0.578,2.843,0.864,4.294,0.864
			c2.16,0,4.306-0.631,6.161-1.867c3.105-2.069,4.959-5.532,4.959-9.266V28.774C510.187,26.759,509.386,24.825,507.96,23.4z"/>
	</g>
</g>
<g>
	<g>
		<path d="M297.141,120.683h-49.326c-4.198,0-7.602,3.403-7.602,7.602c0,4.198,3.404,7.602,7.602,7.602h41.724v9.122h-67.231
			v-16.723c0-4.198-3.403-7.602-7.602-7.602c-4.198,0-7.602,3.403-7.602,7.602v24.325v24.325v24.325v24.325v24.325v24.325v24.325
			v24.325v24.325c0,4.198,3.404,7.602,7.602,7.602h82.434c4.198,0,7.602-3.404,7.602-7.602v-24.325V298.56v-24.325V249.91v-24.325
			V201.26v-24.325V152.61v-24.325C304.742,124.087,301.339,120.683,297.141,120.683z M289.539,339.608h-67.231v-9.122h67.231
			V339.608z M289.539,315.283h-67.231v-9.122h67.231V315.283z M289.539,290.958h-67.231v-9.122h67.231V290.958z M289.539,266.633
			h-67.231v-9.122h67.231V266.633z M289.539,242.308h-67.231v-9.122h67.231V242.308z M289.539,217.983h-67.231v-9.122h67.231
			V217.983z M289.539,193.658h-67.231v-9.122h67.231V193.658z M289.539,169.333h-67.231v-9.122h67.231V169.333z"/>
	</g>
</g>
<g>
	<g>
		<path d="M56.14,374.998c0-4.75-3.865-8.615-8.615-8.615H8.616c-4.75,0-8.615,3.865-8.615,8.615v38.909
			c0,0.344,0.025,0.68,0.065,1.014c-0.04,0.333-0.065,0.669-0.065,1.013v18.44c0,4.75,3.865,8.615,8.615,8.615h38.909
			c4.75,0,8.615-3.865,8.615-8.615v-18.44c0-0.344-0.025-0.68-0.065-1.014c0.04-0.333,0.065-0.67,0.065-1.014V374.998z
			 M40.937,427.786H15.204v-5.264h25.733V427.786z M40.937,407.319H15.204v-25.733h25.733V407.319z"/>
	</g>
</g>
<g>
	<g>
		<path d="M132.117,374.998c0-4.75-3.865-8.615-8.615-8.615H84.593c-4.75,0-8.615,3.865-8.615,8.615v38.909
			c0,0.344,0.025,0.68,0.065,1.014c-0.04,0.333-0.065,0.67-0.065,1.014v18.44c0,4.75,3.865,8.615,8.615,8.615h38.909
			c4.75,0,8.615-3.865,8.615-8.615v-18.44c0-0.344-0.025-0.68-0.065-1.014c0.039-0.333,0.065-0.67,0.065-1.014V374.998z
			 M116.914,427.786H91.181v-5.264h25.733V427.786z M116.914,407.319H91.181v-25.733h25.733V407.319z"/>
	</g>
</g>
<g>
	<g>
		<path d="M208.094,374.998c0-4.75-3.865-8.615-8.615-8.615H160.57c-4.75,0-8.615,3.865-8.615,8.615v38.909
			c0,0.344,0.025,0.68,0.065,1.014c-0.039,0.333-0.065,0.67-0.065,1.014v18.44c0,4.75,3.865,8.615,8.615,8.615h38.909
			c4.75,0,8.615-3.865,8.615-8.615v-18.44c0-0.344-0.025-0.68-0.065-1.014c0.04-0.333,0.065-0.67,0.065-1.014V374.998z
			 M192.891,427.786h-25.733v-5.264h25.733V427.786z M192.891,407.319h-25.733v-25.733h25.733V407.319z"/>
	</g>
</g>
<g>
	<g>
		<path d="M284.07,374.998c0-4.75-3.865-8.615-8.615-8.615h-38.909c-4.75,0-8.615,3.865-8.615,8.615v38.909
			c0,0.344,0.025,0.68,0.065,1.014c-0.04,0.333-0.065,0.67-0.065,1.014v18.44c0,4.75,3.865,8.615,8.615,8.615h38.909
			c4.75,0,8.615-3.865,8.615-8.615v-18.44c0-0.344-0.025-0.68-0.065-1.014c0.04-0.333,0.065-0.67,0.065-1.014V374.998z
			 M268.867,427.786h-25.733v-5.264h25.733V427.786z M268.868,407.319h-25.733v-25.733h25.733V407.319z"/>
	</g>
</g>
<g>
	<g>
		<path d="M360.047,374.998c0-4.75-3.865-8.615-8.615-8.615h-38.909c-4.75,0-8.615,3.865-8.615,8.615v38.909
			c0,0.344,0.025,0.68,0.065,1.014c-0.04,0.333-0.065,0.67-0.065,1.014v18.44c0,4.75,3.865,8.615,8.615,8.615h38.909
			c4.75,0,8.615-3.865,8.615-8.615v-18.44c0-0.344-0.025-0.68-0.065-1.014c0.039-0.333,0.065-0.67,0.065-1.014V374.998z
			 M344.844,427.786h-25.733v-5.264h25.733V427.786z M344.844,407.319h-25.733v-25.733h25.733V407.319z"/>
	</g>
</g>
<g>
	<g>
		<path d="M436.024,374.998c0-4.75-3.865-8.615-8.615-8.615H388.5c-4.75,0-8.615,3.865-8.615,8.615v38.909
			c0,0.344,0.025,0.68,0.065,1.014c-0.039,0.333-0.065,0.67-0.065,1.014v18.44c0,4.75,3.865,8.615,8.615,8.615h38.909
			c4.75,0,8.615-3.865,8.615-8.615v-18.44c0-0.344-0.025-0.68-0.065-1.014c0.04-0.333,0.065-0.67,0.065-1.014V374.998z
			 M420.821,427.786h-25.733v-5.264h25.733V427.786z M420.821,407.319h-25.733v-25.733h25.733V407.319z"/>
	</g>
</g>
<g>
	<g>
		<path d="M512.001,374.998c0-4.75-3.865-8.615-8.615-8.615h-38.909c-4.75,0-8.615,3.865-8.615,8.615v38.909
			c0,0.344,0.025,0.68,0.065,1.014c-0.04,0.333-0.065,0.67-0.065,1.014v18.44c0,4.75,3.865,8.615,8.615,8.615h38.909
			c4.75,0,8.615-3.865,8.615-8.615v-18.44c0-0.344-0.025-0.68-0.065-1.014c0.04-0.333,0.065-0.67,0.065-1.014V374.998z
			 M496.798,427.786h-25.733v-5.264h25.733V427.786z M496.798,407.319h-25.733v-25.733h25.733V407.319z"/>
	</g>
</g>
<g>
	<g>
		<path d="M391.428,268.871c0-4.75-3.865-8.615-8.615-8.615h-38.909c-4.75,0-8.615,3.865-8.615,8.615v38.909
			c0,0.344,0.025,0.68,0.065,1.014c-0.04,0.333-0.065,0.67-0.065,1.014v18.441c0,4.75,3.865,8.615,8.615,8.615h38.909
			c4.75,0,8.615-3.865,8.615-8.615v-18.441c0-0.344-0.025-0.68-0.065-1.014c0.04-0.333,0.065-0.67,0.065-1.014V268.871z
			 M376.225,321.66h-25.733v-5.265h25.733V321.66z M376.225,301.192h-25.733v-25.733h25.733V301.192z"/>
	</g>
</g>
<g>
	<g>
		<path d="M467.405,268.871c0-4.75-3.865-8.615-8.615-8.615h-38.909c-4.75,0-8.615,3.865-8.615,8.615v38.909
			c0,0.344,0.025,0.68,0.065,1.014c-0.039,0.333-0.065,0.67-0.065,1.014v18.441c0,4.75,3.865,8.615,8.615,8.615h38.909
			c4.75,0,8.615-3.865,8.615-8.615v-18.441c0-0.344-0.025-0.68-0.065-1.014c0.04-0.333,0.065-0.67,0.065-1.014V268.871z
			 M452.202,321.66h-25.733v-5.265h25.733V321.66z M452.202,301.192h-25.733v-25.733h25.733V301.192z"/>
	</g>
</g>
<g>
	<g>
		<path d="M391.428,177.948c0-4.75-3.865-8.615-8.615-8.615h-38.909c-4.75,0-8.615,3.865-8.615,8.615v38.909
			c0,0.344,0.025,0.68,0.065,1.014c-0.04,0.333-0.065,0.67-0.065,1.013v18.44c0,4.75,3.865,8.615,8.615,8.615h38.909
			c4.75,0,8.615-3.865,8.615-8.615v-18.44c0-0.344-0.025-0.68-0.065-1.014c0.04-0.333,0.065-0.67,0.065-1.014V177.948z
			 M376.225,230.737h-25.733v-5.264h25.733V230.737z M376.225,210.269h-25.733v-25.733h25.733V210.269z"/>
	</g>
</g>
<g>
	<g>
		<path d="M467.405,177.948c0-4.75-3.865-8.615-8.615-8.615h-38.909c-4.75,0-8.615,3.865-8.615,8.615v38.909
			c0,0.344,0.025,0.68,0.065,1.014c-0.039,0.333-0.065,0.67-0.065,1.014v18.44c0,4.75,3.865,8.615,8.615,8.615h38.909
			c4.75,0,8.615-3.865,8.615-8.615v-18.44c0-0.344-0.025-0.68-0.065-1.014c0.04-0.333,0.065-0.67,0.065-1.014V177.948z
			 M452.202,230.737h-25.733v-5.264h25.733V230.737z M452.202,210.269h-25.733v-25.733h25.733V210.269z"/>
	</g>
</g>
<g>
	<g>
		<path d="M94.129,268.871c0-4.75-3.865-8.615-8.615-8.615H46.605c-4.75,0-8.615,3.865-8.615,8.615v38.909
			c0,0.344,0.025,0.68,0.065,1.014c-0.039,0.333-0.065,0.67-0.065,1.014v18.441c0,4.75,3.865,8.615,8.615,8.615h38.909
			c4.75,0,8.615-3.865,8.615-8.615v-18.441c0-0.344-0.025-0.68-0.065-1.014c0.04-0.333,0.065-0.67,0.065-1.014V268.871z
			 M78.926,321.66L78.926,321.66H53.193v-5.265h25.733V321.66z M78.926,301.192L78.926,301.192H53.193v-25.733h25.733V301.192z"/>
	</g>
</g>
<g>
	<g>
		<path d="M170.105,268.871c0-4.75-3.865-8.615-8.615-8.615h-38.909c-4.75,0-8.615,3.865-8.615,8.615v38.909
			c0,0.344,0.025,0.68,0.065,1.014c-0.04,0.333-0.065,0.67-0.065,1.014v18.441c0,4.75,3.865,8.615,8.615,8.615h38.909
			c4.75,0,8.615-3.865,8.615-8.615v-18.441c0-0.344-0.025-0.68-0.065-1.014c0.04-0.333,0.065-0.67,0.065-1.014V268.871z
			 M154.902,321.66h-25.733v-5.265h25.733V321.66z M154.902,301.192h-25.733v-25.733h25.733V301.192z"/>
	</g>
</g>
<g>
	<g>
		<path d="M94.129,177.948c0-4.75-3.865-8.615-8.615-8.615H46.605c-4.75,0-8.615,3.865-8.615,8.615v38.909
			c0,0.344,0.025,0.68,0.065,1.014c-0.039,0.333-0.065,0.67-0.065,1.013v18.44c0,4.75,3.865,8.615,8.615,8.615h38.909
			c4.75,0,8.615-3.865,8.615-8.615v-18.44c0-0.344-0.025-0.68-0.065-1.014c0.04-0.333,0.065-0.67,0.065-1.014V177.948z
			 M78.926,230.737L78.926,230.737H53.193v-5.264h25.733V230.737z M78.926,210.269L78.926,210.269H53.193v-25.733h25.733V210.269z"
			/>
	</g>
</g>
<g>
	<g>
		<path d="M170.105,177.948c0-4.75-3.865-8.615-8.615-8.615h-38.909c-4.75,0-8.615,3.865-8.615,8.615v38.909
			c0,0.344,0.025,0.68,0.065,1.014c-0.04,0.333-0.065,0.67-0.065,1.014v18.44c0,4.75,3.865,8.615,8.615,8.615h38.909
			c4.75,0,8.615-3.865,8.615-8.615v-18.44c0-0.344-0.025-0.68-0.065-1.014c0.04-0.333,0.065-0.67,0.065-1.014V177.948z
			 M154.902,230.737h-25.733v-5.264h25.733V230.737z M154.902,210.269h-25.733v-25.733h25.733V210.269z"/>
	</g>
</g>
<g>
	<g>
		<path d="M129.23,470.692H42.066c-4.198,0-7.602,3.404-7.602,7.602s3.404,7.602,7.602,7.602h79.563v9.119H15.204v-16.72
			c0-4.198-3.404-7.602-7.602-7.602S0,474.097,0,478.295v24.322c0,4.198,3.403,7.602,7.602,7.602H129.23
			c4.198,0,7.602-3.403,7.602-7.602v-24.322C136.832,474.096,133.43,470.692,129.23,470.692z"/>
	</g>
</g>
<g>
	<g>
		<path d="M502.585,470.692h-83.718c-4.198,0-7.602,3.404-7.602,7.602s3.403,7.602,7.602,7.602h76.117v9.119H388.559v-16.72
			c0-4.198-3.404-7.602-7.602-7.602s-7.602,3.404-7.602,7.602v24.322c0,4.198,3.403,7.602,7.602,7.602h121.628
			c4.198,0,7.602-3.403,7.602-7.602v-24.322C510.187,474.096,506.783,470.692,502.585,470.692z"/>
	</g>
</g>
<g>
	<g>
		<path d="M317.498,470.692h-81.964c-4.198,0-7.602,3.404-7.602,7.602s3.403,7.602,7.602,7.602h74.362v9.119H203.47v-16.72
			c0-4.198-3.404-7.602-7.602-7.602s-7.602,3.404-7.602,7.602v24.322c0,4.198,3.404,7.602,7.602,7.602h121.628
			c4.198,0,7.602-3.403,7.602-7.602v-24.322C325.099,474.096,321.696,470.692,317.498,470.692z"/>
	</g>
</g>
<g>
</g>
<g>
</g>
<g>
</g>
<g>
</g>
<g>
</g>
<g>
</g>
<g>
</g>
<g>
</g>
<g>
</g>
<g>
</g>
<g>
</g>
<g>
</g>
<g>
</g>
<g>
</g>
<g>
</g>
</svg>
