<?xml version="1.0" ?><svg width="64px" height="64px" viewBox="0 0 64 64" id="Layer_1" style="enable-background:new 0 0 64 64;" version="1.1" xml:space="preserve" xmlns="http://www.w3.org/2000/svg" xmlns:xlink="http://www.w3.org/1999/xlink"><g><path d="M57.5,48.5L33.1,35.5c0,0-0.1,0-0.1,0v-1.8c1.8-0.8,3-2.5,3-4.6c0-2.8-2.2-5-5-5s-5,2.2-5,5h2c0-1.7,1.3-3,3-3s3,1.3,3,3   s-1.3,3-3,3v1v1v1.4c0,0-0.1,0-0.1,0L6.5,48.5C4.3,49.7,3,51.9,3,54.4C3,58,6,61,9.6,61h44.7c3.7,0,6.6-3,6.6-6.6   C61,51.9,59.7,49.7,57.5,48.5z M54.4,59H9.6C7.1,59,5,56.9,5,54.4c0-1.7,0.9-3.3,2.4-4.1l24.4-13.1c0.1,0,0.1,0,0.2,0s0.1,0,0.2,0   l24.4,13.1c1.5,0.8,2.4,2.4,2.4,4.1C59,56.9,56.9,59,54.4,59z"/></g></svg>