<?xml version="1.0" encoding="iso-8859-1"?>
<!-- Generator: Adobe Illustrator 18.0.0, SVG Export Plug-In . SVG Version: 6.00 Build 0)  -->
<!DOCTYPE svg PUBLIC "-//W3C//DTD SVG 1.1//EN" "http://www.w3.org/Graphics/SVG/1.1/DTD/svg11.dtd">
<svg version="1.1" id="Capa_1" xmlns="http://www.w3.org/2000/svg" xmlns:xlink="http://www.w3.org/1999/xlink" x="0px" y="0px"
	 viewBox="0 0 322.521 322.521" style="enable-background:new 0 0 322.521 322.521;" xml:space="preserve">
<g>
	<rect x="121.261" y="107.521" width="30" height="30"/>
	<rect x="171.261" y="107.521" width="30" height="30"/>
	<rect x="121.261" y="207.52" width="30" height="30"/>
	<rect x="171.261" y="207.52" width="30" height="30"/>
	<rect x="171.261" y="157.521" width="30" height="30"/>
	<rect x="121.261" y="157.521" width="30" height="30"/>
	<path d="M81.099,29.292l-1.197,6.983c-0.482,2.813,0.674,5.657,2.984,7.335c2.309,1.678,5.372,1.899,7.898,0.571l6.271-3.297
		l6.271,3.297c1.097,0.577,2.295,0.861,3.489,0.861c0.007,0,0.015,0,0.021,0c4.142,0,7.5-3.358,7.5-7.5
		c0-0.629-0.078-1.24-0.223-1.823l-1.102-6.427l5.074-4.945c2.044-1.993,2.78-4.973,1.897-7.688
		c-0.882-2.715-3.229-4.694-6.054-5.104l-7.011-1.019l-3.136-6.354C102.517,1.621,99.909,0,97.054,0
		c-2.855,0-5.462,1.621-6.725,4.181l-3.135,6.354l-7.012,1.019c-2.825,0.41-5.172,2.389-6.054,5.104
		c-0.882,2.715-0.146,5.696,1.897,7.688L81.099,29.292z"/>
	<path d="M209.511,29.291l-1.197,6.983c-0.483,2.814,0.674,5.658,2.983,7.335c1.307,0.95,2.854,1.433,4.409,1.433
		c1.193,0,2.392-0.285,3.489-0.861l6.271-3.297l6.272,3.297c1.097,0.577,2.295,0.861,3.488,0.861c0.007,0,0.014,0,0.02,0
		c4.143,0,7.5-3.358,7.5-7.5c0-0.629-0.077-1.24-0.223-1.823l-1.102-6.427l5.073-4.945c2.044-1.993,2.779-4.973,1.897-7.688
		c-0.882-2.715-3.229-4.694-6.055-5.104l-7.012-1.019l-3.136-6.354C230.928,1.621,228.32,0,225.466,0
		c-2.855,0-5.463,1.621-6.726,4.181l-3.135,6.354l-7.011,1.019c-2.825,0.41-5.173,2.389-6.055,5.104
		c-0.882,2.715-0.146,5.695,1.898,7.688L209.511,29.291z"/>
	<path d="M145.305,29.291l-1.198,6.983c-0.482,2.814,0.674,5.658,2.983,7.335c1.307,0.95,2.854,1.433,4.41,1.433
		c1.193,0,2.392-0.285,3.489-0.861l6.272-3.297l6.271,3.297c1.104,0.58,2.292,0.849,3.511,0.861c4.142,0,7.499-3.358,7.499-7.5
		c0-0.629-0.077-1.24-0.223-1.823l-1.102-6.427l5.073-4.945c2.044-1.993,2.779-4.973,1.898-7.688
		c-0.882-2.715-3.23-4.694-6.055-5.104l-7.011-1.019l-3.136-6.354C166.723,1.621,164.115,0,161.261,0
		c-2.855,0-5.462,1.621-6.726,4.181l-3.136,6.354l-7.011,1.019c-2.825,0.41-5.172,2.389-6.054,5.104
		c-0.882,2.715-0.146,5.695,1.898,7.688L145.305,29.291z"/>
	<path d="M241.263,52.538l-160-0.016c0,0,0,0-0.002,0c-3.977,0-7.793,1.58-10.606,4.393c-2.813,2.813-4.394,6.628-4.394,10.607v240
		c0,8.284,6.716,15,15,15h160c8.284,0,15-6.716,15-15V67.538C256.261,59.254,249.546,52.539,241.263,52.538z M226.261,292.521h-50
		v-15.001c0-8.284-6.716-15-15-15c-8.284,0-15,6.716-15,15v15.001h-50V82.523l130,0.013V292.521z"/>
</g>
<g>
</g>
<g>
</g>
<g>
</g>
<g>
</g>
<g>
</g>
<g>
</g>
<g>
</g>
<g>
</g>
<g>
</g>
<g>
</g>
<g>
</g>
<g>
</g>
<g>
</g>
<g>
</g>
<g>
</g>
</svg>
