<?xml version="1.0" encoding="iso-8859-1"?>
<!-- Generator: Adobe Illustrator 19.0.0, SVG Export Plug-In . SVG Version: 6.00 Build 0)  -->
<svg version="1.1" id="Layer_1" xmlns="http://www.w3.org/2000/svg" xmlns:xlink="http://www.w3.org/1999/xlink" x="0px" y="0px"
	 viewBox="0 0 512 512" style="enable-background:new 0 0 512 512;" xml:space="preserve">
<g>
	<rect x="68" y="96.303" style="fill:#1D1D1B;" width="136.005" height="15.734"/>
	<rect x="251.996" y="144.302" style="fill:#1D1D1B;" width="191.997" height="15.734"/>
	<rect x="68.134" y="144.176" style="fill:#1D1D1B;" width="15.734" height="32"/>
	<rect x="108.135" y="144.176" style="fill:#1D1D1B;" width="15.734" height="32"/>
	<rect x="148.131" y="144.176" style="fill:#1D1D1B;" width="15.734" height="32"/>
	<rect x="188.137" y="144.176" style="fill:#1D1D1B;" width="15.734" height="32"/>
	<rect x="68.134" y="200.179" style="fill:#1D1D1B;" width="15.734" height="32"/>
	<rect x="108.135" y="200.179" style="fill:#1D1D1B;" width="15.734" height="32"/>
	<rect x="148.131" y="200.179" style="fill:#1D1D1B;" width="15.734" height="32"/>
	<rect x="188.137" y="200.179" style="fill:#1D1D1B;" width="15.734" height="32"/>
	<rect x="68.134" y="256.171" style="fill:#1D1D1B;" width="15.734" height="32"/>
	<rect x="108.135" y="256.171" style="fill:#1D1D1B;" width="15.734" height="32"/>
	<rect x="148.131" y="256.171" style="fill:#1D1D1B;" width="15.734" height="32"/>
	<rect x="188.137" y="256.171" style="fill:#1D1D1B;" width="15.734" height="32"/>
	<rect x="68.134" y="312.174" style="fill:#1D1D1B;" width="15.734" height="32"/>
	<rect x="108.135" y="312.174" style="fill:#1D1D1B;" width="15.734" height="32"/>
	<rect x="148.131" y="312.174" style="fill:#1D1D1B;" width="15.734" height="32"/>
	<rect x="188.137" y="312.174" style="fill:#1D1D1B;" width="15.734" height="32"/>
	<rect x="68.134" y="368.176" style="fill:#1D1D1B;" width="15.734" height="32"/>
	<rect x="108.135" y="368.176" style="fill:#1D1D1B;" width="15.734" height="32"/>
	<rect x="148.131" y="368.176" style="fill:#1D1D1B;" width="15.734" height="32"/>
	<rect x="188.137" y="368.176" style="fill:#1D1D1B;" width="15.734" height="32"/>
	<rect x="68.134" y="424.179" style="fill:#1D1D1B;" width="15.734" height="32"/>
	<rect x="108.135" y="424.179" style="fill:#1D1D1B;" width="15.734" height="32"/>
	<rect x="148.131" y="424.179" style="fill:#1D1D1B;" width="15.734" height="32"/>
	<rect x="188.137" y="424.179" style="fill:#1D1D1B;" width="15.734" height="32"/>
	<rect x="260.136" y="192.175" style="fill:#1D1D1B;" width="15.734" height="32"/>
	<rect x="300.132" y="192.175" style="fill:#1D1D1B;" width="15.734" height="32"/>
	<rect x="340.128" y="192.175" style="fill:#1D1D1B;" width="15.734" height="32"/>
	<rect x="380.134" y="192.175" style="fill:#1D1D1B;" width="15.734" height="32"/>
	<rect x="420.13" y="192.175" style="fill:#1D1D1B;" width="15.734" height="32"/>
	<rect x="260.136" y="248.178" style="fill:#1D1D1B;" width="15.734" height="32"/>
	<rect x="300.132" y="248.178" style="fill:#1D1D1B;" width="15.734" height="32"/>
	<rect x="340.128" y="248.178" style="fill:#1D1D1B;" width="15.734" height="32"/>
	<rect x="380.134" y="248.178" style="fill:#1D1D1B;" width="15.734" height="32"/>
	<rect x="420.13" y="248.178" style="fill:#1D1D1B;" width="15.734" height="32"/>
	<rect x="260.136" y="304.17" style="fill:#1D1D1B;" width="15.734" height="32"/>
	<rect x="300.132" y="304.17" style="fill:#1D1D1B;" width="15.734" height="32"/>
	<rect x="340.128" y="304.17" style="fill:#1D1D1B;" width="15.734" height="32"/>
	<rect x="380.134" y="304.17" style="fill:#1D1D1B;" width="15.734" height="32"/>
	<rect x="420.13" y="304.17" style="fill:#1D1D1B;" width="15.734" height="32"/>
	<rect x="260.136" y="360.173" style="fill:#1D1D1B;" width="15.734" height="32"/>
	<rect x="300.132" y="360.173" style="fill:#1D1D1B;" width="15.734" height="32"/>
	<rect x="340.128" y="360.173" style="fill:#1D1D1B;" width="15.734" height="32"/>
	<rect x="380.134" y="360.173" style="fill:#1D1D1B;" width="15.734" height="32"/>
	<rect x="420.13" y="360.173" style="fill:#1D1D1B;" width="15.734" height="32"/>
	<path style="fill:#1D1D1B;" d="M475.867,487.958V112.307h-40V88.042h16V8.308H260.134v79.735h15.999v24.266h-40.267v-48H36.133
		v423.65H0v15.734h512v-15.734L475.867,487.958L475.867,487.958z M275.868,72.308V24.042h160.266v48.267H275.868z M420.133,88.042
		v24.266H291.867V88.042H420.133z M220.133,487.958H51.867V80.042h168.266V487.958z M380.133,487.958h-64.266v-47.916h64.266
		V487.958z M460.133,487.958h-64.266v-63.65h-95.734v63.65h-64.266V128.041h224.267V487.958z"/>
	<rect x="244.003" y="456.308" style="fill:#1D1D1B;" width="48" height="15.734"/>
	<rect x="403.997" y="456.308" style="fill:#1D1D1B;" width="47.999" height="15.734"/>
	<rect x="292.003" y="40.307" style="fill:#1D1D1B;" width="128.002" height="15.734"/>
</g>
<g>
</g>
<g>
</g>
<g>
</g>
<g>
</g>
<g>
</g>
<g>
</g>
<g>
</g>
<g>
</g>
<g>
</g>
<g>
</g>
<g>
</g>
<g>
</g>
<g>
</g>
<g>
</g>
<g>
</g>
</svg>
