<?xml version="1.0" encoding="iso-8859-1"?>
<!-- Generator: Adobe Illustrator 16.0.0, SVG Export Plug-In . SVG Version: 6.00 Build 0)  -->
<!DOCTYPE svg PUBLIC "-//W3C//DTD SVG 1.1//EN" "http://www.w3.org/Graphics/SVG/1.1/DTD/svg11.dtd">
<svg version="1.1" id="Capa_1" xmlns="http://www.w3.org/2000/svg" xmlns:xlink="http://www.w3.org/1999/xlink" x="0px" y="0px"
	 width="31.344px" height="31.344px" viewBox="0 0 31.344 31.344" style="enable-background:new 0 0 31.344 31.344;"
	 xml:space="preserve">
<g>
	<g>
		<path d="M23.724,27.417l-2.418-1.813c-0.276-0.207-0.782-0.377-1.129-0.377h-3.251v0.422c0,0.69-0.562,1.254-1.254,1.254
			c-0.691,0-1.254-0.563-1.254-1.254v-0.422h-3.251c-0.346,0-0.853,0.17-1.13,0.377L7.62,27.417
			c-0.277,0.206-0.222,0.375,0.124,0.375h15.855C23.945,27.792,24.001,27.624,23.724,27.417z"/>
		<path d="M18.895,10.374c-0.408,0-0.671,0.036-0.828,0.072v5.289c0.156,0.036,0.408,0.036,0.637,0.036
			c1.654,0.012,2.734-0.9,2.734-2.831C21.449,11.261,20.466,10.374,18.895,10.374z"/>
		<path d="M30.089,3.551H1.255C0.566,3.551,0,4.115,0,4.805v16.299c0,0.688,0.565,1.254,1.255,1.254h13.79v3.291
			c0,0.346,0.281,0.625,0.627,0.625c0.346,0,0.627-0.279,0.627-0.625v-3.291h13.79c0.688,0,1.255-0.565,1.255-1.254V4.805
			C31.344,4.115,30.777,3.551,30.089,3.551z M14.632,17.114h-1.823v-3.382h-3.01v3.382H7.964V9.029h1.835v3.106h3.01V9.029h1.823
			V17.114z M22.037,16.153c-0.852,0.708-2.146,1.044-3.73,1.044c-0.947,0-1.619-0.061-2.074-0.12V9.138
			c0.672-0.108,1.547-0.168,2.471-0.168c1.535,0,2.531,0.275,3.31,0.863c0.841,0.624,1.367,1.619,1.367,3.047
			C23.38,14.427,22.816,15.495,22.037,16.153z"/>
	</g>
</g>
<g>
</g>
<g>
</g>
<g>
</g>
<g>
</g>
<g>
</g>
<g>
</g>
<g>
</g>
<g>
</g>
<g>
</g>
<g>
</g>
<g>
</g>
<g>
</g>
<g>
</g>
<g>
</g>
<g>
</g>
</svg>
