<?xml version="1.0" encoding="iso-8859-1"?>
<!-- Generator: Adobe Illustrator 18.1.1, SVG Export Plug-In . SVG Version: 6.00 Build 0)  -->
<svg version="1.1" id="Capa_1" xmlns="http://www.w3.org/2000/svg" xmlns:xlink="http://www.w3.org/1999/xlink" x="0px" y="0px"
	 viewBox="0 0 26.751 26.751" style="enable-background:new 0 0 26.751 26.751;" xml:space="preserve">
<g>
	<g>
		<g>
			<circle style="fill:#010002;" cx="2.075" cy="3.169" r="2.075"/>
		</g>
		<g>
			<path style="fill:#010002;" d="M9.981,24.574c0,0.782-0.645,1.419-1.436,1.419c-0.796,0-1.438-0.637-1.438-1.419l0.003-7.292
				H0.94c-0.164,0-0.297-0.128-0.297-0.296V6.637c0-0.166,0.133-0.299,0.297-0.299h2.269c0.162,0,0.297,0.134,0.297,0.299v7.786
				h6.169c0.165,0,0.296,0.131,0.296,0.299L9.981,24.574z"/>
		</g>
		<g>
			<circle style="fill:#010002;" cx="24.676" cy="3.186" r="2.075"/>
		</g>
		<g>
			<path style="fill:#010002;" d="M16.771,24.59c0,0.782,0.642,1.42,1.434,1.42c0.794,0,1.438-0.638,1.438-1.42L19.64,17.3h6.169
				c0.164,0,0.298-0.134,0.298-0.3V6.653c0-0.166-0.134-0.299-0.298-0.299h-2.265c-0.163,0-0.3,0.133-0.3,0.299v7.787h-6.17
				c-0.164,0-0.3,0.132-0.3,0.296L16.771,24.59z"/>
		</g>
		<g>
			<g>
				<path style="fill:#010002;" d="M12.383,13.188H6.908V11.21h13.329v1.978h-5.5v12.823h-2.354
					C12.383,26.011,12.383,13.188,12.383,13.188z"/>
			</g>
		</g>
		<g>
			<g>
				<circle style="fill:#010002;" cx="13.822" cy="2.85" r="2.109"/>
			</g>
			<g>
				<path style="fill:#010002;" d="M10.588,8.085h0.559l-0.002,2.547h5.334v-2.57h0.577v2.57h1.78V7.696
					c-0.194-2.311-2.878-2.278-2.878-2.278H11.73C8.697,5.473,8.808,7.696,8.808,7.696v2.936h1.78
					C10.588,10.632,10.588,8.085,10.588,8.085z"/>
			</g>
		</g>
	</g>
</g>
<g>
</g>
<g>
</g>
<g>
</g>
<g>
</g>
<g>
</g>
<g>
</g>
<g>
</g>
<g>
</g>
<g>
</g>
<g>
</g>
<g>
</g>
<g>
</g>
<g>
</g>
<g>
</g>
<g>
</g>
</svg>
