<?xml version="1.0" encoding="iso-8859-1"?>
<!-- Generator: Adobe Illustrator 19.0.0, SVG Export Plug-In . SVG Version: 6.00 Build 0)  -->
<svg version="1.1" id="Layer_1" xmlns="http://www.w3.org/2000/svg" xmlns:xlink="http://www.w3.org/1999/xlink" x="0px" y="0px"
	 viewBox="0 0 512.022 512.022" style="enable-background:new 0 0 512.022 512.022;" xml:space="preserve">
<g transform="translate(-1 -1)">
	<g>
		<path d="M504.478,453.278h-59.733v-102.4h59.733c6.344,0,10.469-6.676,7.632-12.35l-27.959-55.917h3.259
			c6.344,0,10.469-6.676,7.632-12.35l-27.959-55.917h3.259c6.344,0,10.469-6.676,7.632-12.35l-27.959-55.917h3.259
			c6.344,0,10.469-6.676,7.633-12.35l-42.667-85.333c-3.145-6.289-12.12-6.289-15.265,0l-42.667,85.333
			c-2.837,5.674,1.289,12.35,7.632,12.35h3.259l-27.958,55.917c-2.837,5.674,1.289,12.35,7.632,12.35h3.259l-27.959,55.917
			c-2.837,5.674,1.289,12.35,7.632,12.35h3.259l-27.959,55.917c-2.837,5.674,1.289,12.35,7.632,12.35h59.733v102.4h-85.333v-25.6
			h17.067c4.713,0,8.533-3.82,8.533-8.533v-21.026c0-15.113-11.104-27.626-25.6-29.829v-17.411c0-4.713-3.82-8.533-8.533-8.533
			s-8.533,3.82-8.533,8.533v17.067h-34.133v-17.067c0-4.713-3.82-8.533-8.533-8.533s-8.533,3.82-8.533,8.533v17.411
			c-14.496,2.203-25.6,14.716-25.6,29.829v21.026c0,4.713,3.82,8.533,8.533,8.533h17.067v25.6h-85.333v-102.4h59.733
			c6.344,0,10.469-6.676,7.632-12.35l-27.959-55.917h3.259c6.344,0,10.469-6.676,7.632-12.35l-27.959-55.917h3.259
			c6.586,0,10.689-7.144,7.371-12.833l-59.733-102.4c-3.293-5.645-11.449-5.645-14.742,0l-59.733,102.4
			c-3.318,5.689,0.785,12.833,7.371,12.833h3.259l-27.959,55.917c-2.837,5.674,1.289,12.35,7.632,12.35h3.259L1.912,338.528
			c-2.837,5.674,1.289,12.35,7.632,12.35h59.733v102.4H9.544c-4.713,0-8.533,3.82-8.533,8.533s3.82,8.533,8.533,8.533h494.933
			c4.713,0,8.533-3.82,8.533-8.533S509.191,453.278,504.478,453.278z M410.611,71.292l28.859,57.719h-3.259h-51.2h-3.259
			L410.611,71.292z M390.285,146.078h40.652l25.6,51.2h-3.259h-85.333h-3.259L390.285,146.078z M373.218,214.344h74.786l25.6,51.2
			h-3.259H350.878h-3.259L373.218,214.344z M356.152,282.611H465.07l25.6,51.2h-54.426c-0.011,0-0.022-0.002-0.034-0.002h-51.2
			c-0.011,0-0.022,0.002-0.034,0.002h-54.426L356.152,282.611z M427.678,350.878v102.398h-34.133V350.878H427.678z M103.411,120.347
			l44.876,76.931h-2.21H60.744h-2.21L103.411,120.347z M66.018,214.344h74.786l25.6,51.2h-3.259H43.678h-3.259L66.018,214.344z
			 M48.952,282.611H157.87l25.6,51.2h-54.426c-0.011,0-0.022-0.002-0.034-0.002h-51.2c-0.011,0-0.022,0.002-0.034,0.002H23.352
			L48.952,282.611z M120.478,350.878v102.398H86.344V350.878H120.478z M214.344,398.118c0-7.242,5.865-13.107,13.107-13.107h59.119
			c7.242,0,13.107,5.865,13.107,13.107v12.493h-85.333V398.118z M239.944,427.678h34.133v25.6h-34.133V427.678z"/>
	</g>
</g>
<g>
</g>
<g>
</g>
<g>
</g>
<g>
</g>
<g>
</g>
<g>
</g>
<g>
</g>
<g>
</g>
<g>
</g>
<g>
</g>
<g>
</g>
<g>
</g>
<g>
</g>
<g>
</g>
<g>
</g>
</svg>
