<?xml version="1.0" encoding="iso-8859-1"?>
<!-- Generator: Adobe Illustrator 19.0.0, SVG Export Plug-In . SVG Version: 6.00 Build 0)  -->
<svg version="1.1" id="Layer_1" xmlns="http://www.w3.org/2000/svg" xmlns:xlink="http://www.w3.org/1999/xlink" x="0px" y="0px"
	 viewBox="0 0 226.097 226.097" style="enable-background:new 0 0 226.097 226.097;" xml:space="preserve">
<g>
	<g>
		<g>
			<path d="M41.892,124.56c0.422,0,0.852-0.064,1.275-0.201c2.163-0.704,3.345-3.028,2.642-5.191
				c-1.918-5.887-2.891-12.042-2.891-18.295c0-32.524,26.461-58.985,58.985-58.985c6.128,0,12.171,0.935,17.953,2.78
				c2.155,0.695,4.483-0.506,5.175-2.67c0.688-2.167-0.506-4.483-2.674-5.175c-6.594-2.103-13.474-3.17-20.454-3.17
				c-37.064,0-67.22,30.154-67.22,67.22c0,7.121,1.11,14.133,3.293,20.844C38.543,123.459,40.155,124.56,41.892,124.56z"/>
			<path d="M9.263,100.874c0-51.082,41.559-92.639,92.639-92.639c9.336,0,18.552,1.383,27.386,4.113
				c2.159,0.669,4.479-0.549,5.147-2.718c0.672-2.173-0.543-4.479-2.718-5.151C122.095,1.508,112.064,0,101.903,0
				C46.278,0,1.028,45.252,1.028,100.874c0,9.067,1.202,18.057,3.575,26.722c0.503,1.826,2.159,3.028,3.969,3.028
				c0.362,0,0.728-0.048,1.089-0.145c2.195-0.603,3.486-2.867,2.887-5.062C10.369,117.464,9.263,109.205,9.263,100.874z"/>
			<path d="M219.247,179.456l-16.469,16.469l-30-30c31.981-36.103,30.797-91.454-3.754-126.003l-2.911-2.911l-41.935,41.934
				c-12.569-9.441-30.854-8.183-42.667,3.623c-11.81,11.812-13.063,30.093-3.62,42.664l-41.936,41.936l2.911,2.911
				c17.941,17.941,41.511,26.915,65.077,26.915c22.742,0,45.433-8.44,63.118-25.142l29.895,29.895l-18.528,18.528l5.822,5.822
				l40.819-40.819L219.247,179.456z M87.332,88.392c8.585-8.579,21.634-9.798,30.94-3.54l-34.477,34.477
				C77.536,110.022,78.754,96.972,87.332,88.392z M163.2,164.259c-31.7,31.7-82.683,32.648-115.529,2.838l118.368-118.37
				C195.848,81.577,194.9,132.559,163.2,164.259z"/>
		</g>
	</g>
</g>
<g>
</g>
<g>
</g>
<g>
</g>
<g>
</g>
<g>
</g>
<g>
</g>
<g>
</g>
<g>
</g>
<g>
</g>
<g>
</g>
<g>
</g>
<g>
</g>
<g>
</g>
<g>
</g>
<g>
</g>
</svg>
