<?xml version="1.0" encoding="iso-8859-1"?>
<!-- Generator: Adobe Illustrator 18.0.0, SVG Export Plug-In . SVG Version: 6.00 Build 0)  -->
<!DOCTYPE svg PUBLIC "-//W3C//DTD SVG 1.1//EN" "http://www.w3.org/Graphics/SVG/1.1/DTD/svg11.dtd">
<svg version="1.1" id="Capa_1" xmlns="http://www.w3.org/2000/svg" xmlns:xlink="http://www.w3.org/1999/xlink" x="0px" y="0px"
	 viewBox="0 0 60 60" style="enable-background:new 0 0 60 60;" xml:space="preserve">
<path d="M60,35.537v-9.5c0-3.309-2.691-6-6-6H32c-5.07,0-6.07-1.194-7.885-3.361c-0.216-0.258-0.439-0.525-0.679-0.801
	c-2.707-3.122-6.563-4.912-10.577-4.912c-3.063,0-5.895,1.042-8.188,3.014c-0.232,0.199-0.451,0.405-0.658,0.615
	C2.07,16.566,1,19.315,1,22.333v4.32c-0.631,0.95-1,2.087-1,3.31c0,1.056,0.292,2.072,0.83,2.987C0.311,33.683,0,34.572,0,35.537
	c0,1.668,0.922,3.11,2.273,3.887C2.104,39.76,2,40.135,2,40.537c0,1.378,1.122,2.5,2.5,2.5H6v3h2v1c-0.552,0-1,0.448-1,1
	s0.448,1,1,1h2c0.552,0,1-0.448,1-1s-0.448-1-1-1v-1h2v-3h37v3h2v1c-0.552,0-1,0.448-1,1s0.448,1,1,1h2c0.552,0,1-0.448,1-1
	s-0.448-1-1-1v-1h2v-3h1.5c1.378,0,2.5-1.122,2.5-2.5c0-0.609-0.228-1.161-0.591-1.595C59.374,38.116,60,36.904,60,35.537z
	 M56,26.037c0.552,0,1,0.448,1,1c0,0.552-0.448,1-1,1s-1-0.448-1-1C55,26.485,55.448,26.037,56,26.037z M53,23.037
	c0.552,0,1,0.448,1,1c0,0.552-0.448,1-1,1s-1-0.448-1-1C52,23.485,52.448,23.037,53,23.037z M53,29.037c0.552,0,1,0.448,1,1
	c0,0.552-0.448,1-1,1s-1-0.448-1-1C52,29.485,52.448,29.037,53,29.037z M50,26.037c0.552,0,1,0.448,1,1c0,0.552-0.448,1-1,1
	s-1-0.448-1-1C49,26.485,49.448,26.037,50,26.037z M47,23.037c0.552,0,1,0.448,1,1c0,0.552-0.448,1-1,1s-1-0.448-1-1
	C46,23.485,46.448,23.037,47,23.037z M47,29.037c0.552,0,1,0.448,1,1c0,0.552-0.448,1-1,1s-1-0.448-1-1
	C46,29.485,46.448,29.037,47,29.037z M44,26.037c0.552,0,1,0.448,1,1c0,0.552-0.448,1-1,1s-1-0.448-1-1
	C43,26.485,43.448,26.037,44,26.037z M41,23.037c0.552,0,1,0.448,1,1c0,0.552-0.448,1-1,1s-1-0.448-1-1
	C40,23.485,40.448,23.037,41,23.037z M41,29.037c0.552,0,1,0.448,1,1c0,0.552-0.448,1-1,1s-1-0.448-1-1
	C40,29.485,40.448,29.037,41,29.037z M38,26.037c0.552,0,1,0.448,1,1c0,0.552-0.448,1-1,1s-1-0.448-1-1
	C37,26.485,37.448,26.037,38,26.037z M35,23.037c0.552,0,1,0.448,1,1c0,0.552-0.448,1-1,1s-1-0.448-1-1
	C34,23.485,34.448,23.037,35,23.037z M35,29.037c0.552,0,1,0.448,1,1c0,0.552-0.448,1-1,1s-1-0.448-1-1
	C34,29.485,34.448,29.037,35,29.037z M32,26.037c0.552,0,1,0.448,1,1c0,0.552-0.448,1-1,1s-1-0.448-1-1
	C31,26.485,31.448,26.037,32,26.037z M29,23.037c0.552,0,1,0.448,1,1c0,0.552-0.448,1-1,1s-1-0.448-1-1
	C28,23.485,28.448,23.037,29,23.037z M29,29.037c0.552,0,1,0.448,1,1c0,0.552-0.448,1-1,1s-1-0.448-1-1
	C28,29.485,28.448,29.037,29,29.037z M26,20.037c0.552,0,1,0.448,1,1c0,0.552-0.448,1-1,1s-1-0.448-1-1
	C25,20.485,25.448,20.037,26,20.037z M26,26.037c0.552,0,1,0.448,1,1c0,0.552-0.448,1-1,1s-1-0.448-1-1
	C25,26.485,25.448,26.037,26,26.037z M23,17.037c0.552,0,1,0.448,1,1c0,0.552-0.448,1-1,1s-1-0.448-1-1
	C22,17.485,22.448,17.037,23,17.037z M23,23.037c0.552,0,1,0.448,1,1c0,0.552-0.448,1-1,1s-1-0.448-1-1
	C22,23.485,22.448,23.037,23,23.037z M23,29.037c0.552,0,1,0.448,1,1c0,0.552-0.448,1-1,1s-1-0.448-1-1
	C22,29.485,22.448,29.037,23,29.037z M20,14.037c0.552,0,1,0.448,1,1c0,0.552-0.448,1-1,1s-1-0.448-1-1
	C19,14.485,19.448,14.037,20,14.037z M20,20.037c0.552,0,1,0.448,1,1c0,0.552-0.448,1-1,1s-1-0.448-1-1
	C19,20.485,19.448,20.037,20,20.037z M20,26.037c0.552,0,1,0.448,1,1c0,0.552-0.448,1-1,1s-1-0.448-1-1
	C19,26.485,19.448,26.037,20,26.037z M17,17.037c0.552,0,1,0.448,1,1c0,0.552-0.448,1-1,1s-1-0.448-1-1
	C16,17.485,16.448,17.037,17,17.037z M17,23.037c0.552,0,1,0.448,1,1c0,0.552-0.448,1-1,1s-1-0.448-1-1
	C16,23.485,16.448,23.037,17,23.037z M17,29.037c0.552,0,1,0.448,1,1c0,0.552-0.448,1-1,1s-1-0.448-1-1
	C16,29.485,16.448,29.037,17,29.037z M14,14.037c0.552,0,1,0.448,1,1c0,0.552-0.448,1-1,1s-1-0.448-1-1
	C13,14.485,13.448,14.037,14,14.037z M14,20.037c0.552,0,1,0.448,1,1c0,0.552-0.448,1-1,1s-1-0.448-1-1
	C13,20.485,13.448,20.037,14,20.037z M14,26.037c0.552,0,1,0.448,1,1c0,0.552-0.448,1-1,1s-1-0.448-1-1
	C13,26.485,13.448,26.037,14,26.037z M11,17.037c0.552,0,1,0.448,1,1c0,0.552-0.448,1-1,1s-1-0.448-1-1
	C10,17.485,10.448,17.037,11,17.037z M11,23.037c0.552,0,1,0.448,1,1c0,0.552-0.448,1-1,1s-1-0.448-1-1
	C10,23.485,10.448,23.037,11,23.037z M8,14.037c0.552,0,1,0.448,1,1c0,0.552-0.448,1-1,1s-1-0.448-1-1
	C7,14.485,7.448,14.037,8,14.037z M8,20.037c0.552,0,1,0.448,1,1c0,0.552-0.448,1-1,1s-1-0.448-1-1C7,20.485,7.448,20.037,8,20.037z
	 M5,17.037c0.552,0,1,0.448,1,1c0,0.552-0.448,1-1,1s-1-0.448-1-1C4,17.485,4.448,17.037,5,17.037z M5,23.037c0.552,0,1,0.448,1,1
	c0,0.552-0.448,1-1,1s-1-0.448-1-1C4,23.485,4.448,23.037,5,23.037z M2.648,27.794l0.154-0.206c0.18-0.242,0.386-0.454,0.605-0.645
	c0.034-0.029,0.069-0.058,0.104-0.086c0.185-0.151,0.384-0.278,0.59-0.392c0.065-0.035,0.127-0.074,0.194-0.105
	c0.195-0.094,0.4-0.163,0.608-0.224c0.075-0.022,0.146-0.052,0.223-0.069C5.41,26.001,5.702,25.963,6,25.963c2.206,0,4,1.794,4,4
	c0,0.361-0.052,0.721-0.154,1.074H4.5c-0.274,0-0.543,0.033-0.808,0.082c-0.057,0.01-0.114,0.02-0.17,0.032
	c-0.248,0.055-0.49,0.129-0.724,0.225C2.747,31.397,2.7,31.423,2.65,31.445c-0.098,0.045-0.198,0.085-0.294,0.137
	C2.122,31.072,2,30.524,2,29.963C2,29.162,2.242,28.42,2.648,27.794z M55.5,38.037h-51c-1.378,0-2.5-1.122-2.5-2.5
	c0-0.661,0.262-1.258,0.682-1.705l0.104-0.1c0.008-0.006,0.016-0.012,0.023-0.018l0.107-0.087l-0.002-0.003c0,0,0,0,0,0l0.002,0.002
	l-0.002-0.003c0.067-0.056,0.133-0.115,0.205-0.164c0.03-0.02,0.064-0.035,0.096-0.052l0.103-0.054L3.318,33.35
	c0.075-0.041,0.148-0.085,0.226-0.118c0.032-0.013,0.065-0.023,0.117-0.038c0.017-0.005,0.034-0.009,0.05-0.014l0.097-0.028
	l-0.001-0.004c0.067-0.02,0.132-0.046,0.2-0.06c0.165-0.033,0.331-0.051,0.494-0.051h6.68H55.5c1.378,0,2.5,1.122,2.5,2.5
	S56.878,38.037,55.5,38.037z"/>
<g>
</g>
<g>
</g>
<g>
</g>
<g>
</g>
<g>
</g>
<g>
</g>
<g>
</g>
<g>
</g>
<g>
</g>
<g>
</g>
<g>
</g>
<g>
</g>
<g>
</g>
<g>
</g>
<g>
</g>
</svg>
