<?xml version="1.0" encoding="iso-8859-1"?>
<!-- Generator: Adobe Illustrator 19.0.0, SVG Export Plug-In . SVG Version: 6.00 Build 0)  -->
<svg version="1.1" id="Layer_1" xmlns="http://www.w3.org/2000/svg" xmlns:xlink="http://www.w3.org/1999/xlink" x="0px" y="0px"
	 viewBox="0 0 512 512" style="enable-background:new 0 0 512 512;" xml:space="preserve">
<g>
	<g>
		<g>
			<path d="M309.333,117.333c5.888,0,10.667-4.779,10.667-10.667V68.437l109.781,109.781c2.091,2.069,4.821,3.115,7.552,3.115
				c2.731,0,5.461-1.045,7.531-3.115c4.16-4.16,4.16-10.923,0-15.083L335.061,53.333h38.272c5.888,0,10.667-4.779,10.667-10.667
				S379.221,32,373.333,32h-64c-0.619,0-1.173,0.256-1.771,0.363c-0.768,0.128-1.557,0.171-2.304,0.469
				c-1.301,0.533-2.496,1.323-3.477,2.304c-0.085,0.085-0.107,0.213-0.213,0.299c-0.853,0.917-1.6,1.963-2.091,3.136
				c-0.533,1.344-0.811,2.731-0.811,4.139v63.957C298.667,112.555,303.445,117.333,309.333,117.333z"/>
			<path d="M501.333,373.333h-96v-74.667c0-5.888-4.779-10.667-10.667-10.667h-96v-74.667c0-5.888-4.779-10.667-10.667-10.667h-96
				V128c0-5.888-4.779-10.667-10.667-10.667h-96V42.667C85.333,36.779,80.555,32,74.667,32h-64C4.779,32,0,36.779,0,42.667
				s4.779,10.667,10.667,10.667H64V128c0,5.888,4.779,10.667,10.667,10.667h96v74.667c0,5.888,4.779,10.667,10.667,10.667h96v74.667
				c0,5.888,4.779,10.667,10.667,10.667h96V384c0,5.888,4.779,10.667,10.667,10.667h96v74.667c0,5.888,4.779,10.667,10.667,10.667
				c5.888,0,10.667-4.779,10.667-10.667V384C512,378.112,507.221,373.333,501.333,373.333z"/>
		</g>
	</g>
</g>
<g>
</g>
<g>
</g>
<g>
</g>
<g>
</g>
<g>
</g>
<g>
</g>
<g>
</g>
<g>
</g>
<g>
</g>
<g>
</g>
<g>
</g>
<g>
</g>
<g>
</g>
<g>
</g>
<g>
</g>
</svg>
