<?xml version="1.0" encoding="iso-8859-1"?>
<!-- Generator: Adobe Illustrator 18.0.0, SVG Export Plug-In . SVG Version: 6.00 Build 0)  -->
<!DOCTYPE svg PUBLIC "-//W3C//DTD SVG 1.1//EN" "http://www.w3.org/Graphics/SVG/1.1/DTD/svg11.dtd">
<svg version="1.1" id="Capa_1" xmlns="http://www.w3.org/2000/svg" xmlns:xlink="http://www.w3.org/1999/xlink" x="0px" y="0px"
	 viewBox="0 0 339.836 339.836" style="enable-background:new 0 0 339.836 339.836;" xml:space="preserve">
<g>
	<g>
		<path d="M234.012,98.45v-9.438c0-4.143-3.358-7.5-7.5-7.5c-4.143,0-7.5,3.357-7.5,7.5v9.438c0,4.143,3.357,7.5,7.5,7.5
			C230.654,105.95,234.012,102.593,234.012,98.45z"/>
		<path d="M198.08,105.951c2.352,0,4.668-1.104,6.131-3.171l6.674-9.438c2.391-3.382,1.588-8.063-1.795-10.454
			c-3.381-2.392-8.063-1.589-10.453,1.794l-6.674,9.438c-2.393,3.382-1.588,8.063,1.793,10.454
			C195.072,105.504,196.582,105.951,198.08,105.951z"/>
		<path d="M254.943,105.951c1.496,0,3.008-0.447,4.322-1.377c3.383-2.392,4.185-7.072,1.795-10.454l-6.674-9.438
			c-2.393-3.383-7.074-4.187-10.455-1.794c-3.381,2.392-4.186,7.072-1.793,10.454l6.674,9.438
			C250.273,104.848,252.59,105.951,254.943,105.951z"/>
		<path d="M225.652,160.192H114.182c-4.143,0-7.5,3.357-7.5,7.5v82.309c0,4.143,3.357,7.5,7.5,7.5h111.471
			c4.143,0,7.5-3.357,7.5-7.5v-82.309C233.152,163.55,229.795,160.192,225.652,160.192z M162.416,242.501h-40.734v-67.309h40.734
			V242.501z M218.152,242.501h-40.736v-67.309h40.736V242.501z"/>
		<path d="M339.818,282.758l-10-148.828c-0.264-3.938-3.535-6.997-7.482-6.997h-17.201l29.744-42.132
			c1.272-1.8,1.686-4.068,1.135-6.202c-0.551-2.133-2.014-3.916-3.998-4.876l-72.17-34.886
			c-8.144-9.258-20.064-15.117-33.334-15.117c-24.486,0-44.408,19.922-44.408,44.41c0,4.143,3.358,7.5,7.5,7.5h73.817
			c0.008,0.001,0.014,0,0.019,0c4.143,0,7.5-3.357,7.5-7.5c0-0.204-0.008-0.405-0.023-0.605c-0.033-2.381-0.26-4.714-0.654-6.99
			l47.262,22.844l-30.75,43.555H17.5c-3.947,0-7.219,3.06-7.484,6.997l-10,148.828C0.01,282.845,0,283.179,0,283.261v25.355
			c0,4.142,3.357,7.5,7.5,7.5h324.836c4.142,0,7.5-3.358,7.5-7.5v-25.355C339.836,283.179,339.824,282.845,339.818,282.758z
			 M198.072,60.63c3.324-12.596,14.815-21.91,28.44-21.91c13.625,0,25.115,9.314,28.439,21.91H198.072z M24.512,141.933h251.672
			l-3.879,5.493c-15.977,2.011-28.379,15.673-28.379,32.186c0,4.143,3.357,7.5,7.5,7.5h49.902c0.008,0.001,0.016,0.001,0.02,0
			c4.143,0,7.5-3.357,7.5-7.5c0-0.212-0.008-0.422-0.025-0.629c-0.25-13.137-8.348-24.383-19.787-29.248l5.51-7.803h20.777
			l8.992,133.828H15.521L24.512,141.933z M292.133,172.112h-31.512c2.811-5.88,8.816-9.951,15.756-9.951
			C283.316,162.161,289.324,166.232,292.133,172.112z M324.836,301.116H15v-10.355h309.836V301.116z"/>
	</g>
</g>
<g>
</g>
<g>
</g>
<g>
</g>
<g>
</g>
<g>
</g>
<g>
</g>
<g>
</g>
<g>
</g>
<g>
</g>
<g>
</g>
<g>
</g>
<g>
</g>
<g>
</g>
<g>
</g>
<g>
</g>
</svg>
